# xmcd
#
# Track frame offsets:
#	150
#	13752
#	27767
#	38397
#	51800
#	66912
#	78340
#	91645
#	103240
#	116910
#
# Disc length: 1753 seconds
#
# Revision: 0
# Processed by: cddbd v1.5.2PL0 Copyright (c) Steve Scherf et al.
# Submitted via: audiograbber 1.83.01
#
DISCID=7406d70a
DTITLE=Shelton, Ricky van - Loving proof
DYEAR=1988
DGENRE=Country
TTITLE0=Swimming upstream
TTITLE1=I'll leave this world loving you
TTITLE2=From a jack to a king
TTITLE3=Let me live with love (and die with you)
TTITLE4=Living proof
TTITLE5=Hole in my pocket
TTITLE6=The picture
TTITLE7=Somebody's back in town
TTITLE8=Don't send me no angels
TTITLE9=He's got you
EXTD=
EXTT0=
EXTT1=
EXTT2=
EXTT3=
EXTT4=
EXTT5=
EXTT6=
EXTT7=
EXTT8=
EXTT9=
PLAYORDER=
